<?xml version="1.0" encoding="UTF-8" standalone="no"?>
<svg width="174px" height="238px" viewBox="0 0 174 238" version="1.1" xmlns="http://www.w3.org/2000/svg" xmlns:xlink="http://www.w3.org/1999/xlink">
    <!-- Generator: Sketch 39.1 (31720) - http://www.bohemiancoding.com/sketch -->
    <title>Group</title>
    <desc>Created with Sketch.</desc>
    <defs></defs>
    <g id="Page-1" stroke="none" stroke-width="1" fill="none" fill-rule="evenodd">
        <g id="Iconos_siteQualitas" transform="translate(-537.000000, -250.000000)">
            <g id="Group" transform="translate(537.000000, 250.000000)">
                <path d="M83.4836237,15.0961672 C113.918467,15.0961672 138.714983,35.5881533 138.714983,60.6878049 C138.714983,85.7874564 113.918467,106.279443 83.4836237,106.279443 C53.0487805,106.279443 28.2522648,85.7268293 28.2522648,60.6271777 C28.2522648,35.5275261 53.0487805,15.0961672 83.4836237,15.0961672 L83.4836237,15.0961672 L83.4836237,15.0961672 Z M160.601394,166.48223 L164.481533,166.48223 L164.481533,170.362369 L160.601394,170.362369 L160.601394,166.48223 L160.601394,166.48223 L160.601394,166.48223 Z M147.445296,166.48223 L151.325436,166.48223 L151.325436,170.362369 L147.445296,170.362369 L147.445296,166.48223 L147.445296,166.48223 L147.445296,166.48223 Z M134.289199,166.48223 L138.169338,166.48223 L138.169338,170.362369 L134.289199,170.362369 L134.289199,166.48223 L134.289199,166.48223 L134.289199,166.48223 Z M121.193728,166.48223 L125.073868,166.48223 L125.073868,170.362369 L121.193728,170.362369 L121.193728,166.48223 L121.193728,166.48223 L121.193728,166.48223 Z M108.037631,166.48223 L111.91777,166.48223 L111.91777,170.362369 L108.037631,170.362369 L108.037631,166.48223 L108.037631,166.48223 L108.037631,166.48223 Z M94.9421603,166.48223 L98.8222997,166.48223 L98.8222997,170.362369 L94.9421603,170.362369 L94.9421603,166.48223 L94.9421603,166.48223 L94.9421603,166.48223 Z M81.7860627,166.48223 L85.6662021,166.48223 L85.6662021,170.362369 L81.7860627,170.362369 L81.7860627,166.48223 L81.7860627,166.48223 L81.7860627,166.48223 Z M68.6299652,166.48223 L72.5101045,166.48223 L72.5101045,170.362369 L68.6299652,170.362369 L68.6299652,166.48223 L68.6299652,166.48223 L68.6299652,166.48223 Z M55.5344948,166.48223 L59.4146341,166.48223 L59.4146341,170.362369 L55.5344948,170.362369 L55.5344948,166.48223 L55.5344948,166.48223 L55.5344948,166.48223 Z M42.3783972,166.48223 L46.2585366,166.48223 L46.2585366,170.362369 L42.3783972,170.362369 L42.3783972,166.48223 L42.3783972,166.48223 L42.3783972,166.48223 Z M29.2829268,166.48223 L33.1630662,166.48223 L33.1630662,170.362369 L29.2829268,170.362369 L29.2829268,166.48223 L29.2829268,166.48223 L29.2829268,166.48223 Z M16.1268293,166.48223 L20.0069686,166.48223 L20.0069686,170.362369 L16.1268293,170.362369 L16.1268293,166.48223 L16.1268293,166.48223 L16.1268293,166.48223 Z M2.97073171,166.48223 L6.85087108,166.48223 L6.85087108,170.362369 L2.97073171,170.362369 L2.97073171,166.48223 L2.97073171,166.48223 L2.97073171,166.48223 Z M5.88083624,5.82020906 L161.935192,5.82020906 L161.935192,154.841812 L5.88083624,154.841812 L5.88083624,5.82020906 L5.88083624,5.82020906 L5.88083624,5.82020906 Z M0.545644599,0.485017422 L167.270383,0.485017422 L167.270383,160.177003 L0.545644599,160.177003 L0.545644599,0.485017422 L0.545644599,0.485017422 L0.545644599,0.485017422 Z M83.1804878,22.3714286 L83.1804878,22.3714286 C99.5498258,22.3714286 112.887805,35.7700348 112.887805,52.0787456 L112.887805,67.902439 C112.887805,84.271777 99.4891986,97.6097561 83.1804878,97.6097561 L83.1804878,97.6097561 C66.8111498,97.6097561 53.4731707,84.2111498 53.4731707,67.902439 L53.4731707,52.1393728 C53.4125436,35.7700348 66.8111498,22.3714286 83.1804878,22.3714286 L83.1804878,22.3714286 L83.1804878,22.3714286 Z M36.7400697,100.822997 C42.6209059,103.672474 77.5421603,119.071777 83.8473868,119.920557 C90.1526132,120.769338 103.369338,124.285714 118.344251,120.163066 C133.319164,116.040418 133.076655,112.584669 137.199303,112.584669 C141.321951,112.584669 141.746341,115.191638 140.04878,117.798606 C138.290592,120.405575 127.013937,127.802091 123.800697,131.25784 C120.526829,134.713589 113.190941,142.352613 111.190244,143.868293 C109.250174,145.383972 104.218118,149.50662 94.2752613,142.595122 C84.271777,135.622997 61.9609756,121.981882 52.8062718,117.192334 C43.7121951,112.402787 31.5261324,107.006969 29.343554,105.915679 C27.1609756,104.82439 25.8878049,103.55122 27.4034843,100.701742 C28.9191638,97.7916376 30.8592334,97.9735192 36.7400697,100.822997 L36.7400697,100.822997 L36.7400697,100.822997 Z" id="Shape" fill="#862983"></path>
                <path d="M18.9156794,181.699652 C25.5240418,181.699652 29.8891986,189.823693 29.8891986,202.737282 C29.8891986,215.650871 25.584669,223.774913 18.9156794,223.774913 C12.2466899,223.774913 8.00278746,215.226481 8.00278746,202.737282 C8.00278746,190.248084 12.2466899,181.699652 18.9156794,181.699652 L18.9156794,181.699652 L18.9156794,181.699652 Z M111.735889,195.280139 C111.614634,196.492683 112.463415,196.371429 112.948432,196.371429 L113.979094,196.371429 L113.979094,218.742857 C113.979094,218.742857 113.675958,223.289895 116.101045,224.866202 C118.526132,226.503136 120.648084,226.685017 122.770035,224.866202 C124.891986,223.047387 125.195122,221.713589 125.195122,221.04669 C125.195122,220.319164 124.770732,219.834146 123.800697,220.925436 C122.770035,222.016725 121.557491,222.744251 120.466202,222.622997 C119.374913,222.501742 118.465505,221.834843 118.465505,218.621603 L118.465505,196.371429 L122.406272,196.371429 C122.406272,196.371429 124.346341,196.250174 124.225087,194.552613 C124.103833,192.855052 123.012544,193.279443 122.285017,193.158188 C121.557491,193.036934 118.58676,193.158188 118.58676,193.158188 L118.58676,188.126132 C118.58676,188.126132 117.859233,185.701045 116.889199,187.519861 C115.858537,189.338676 115.555401,190.126829 114.767247,191.460627 C113.85784,192.794425 111.857143,194.067596 111.735889,195.280139 L111.735889,195.280139 L111.735889,195.280139 Z M70.8125436,189.217422 L72.0857143,189.944948 L78.8759582,183.094077 C78.8759582,183.094077 81.543554,180.547735 81.3010453,179.274564 C81.1191638,178.001394 79.9066202,176.970732 79.3003484,177.395122 C78.6940767,177.819512 75.7839721,181.699652 74.9958188,183.094077 C74.0864111,184.427875 70.8125436,189.217422 70.8125436,189.217422 L70.8125436,189.217422 L70.8125436,189.217422 Z M86.7574913,179.517073 C86.4543554,177.577003 89.2432056,178.062021 90.3344948,177.334495 C91.4864111,176.546341 91.8501742,175.515679 92.8808362,175.636934 C93.9114983,175.758188 93.6689895,177.031359 93.6689895,177.758885 L93.6689895,221.04669 C93.6689895,221.04669 93.6689895,222.137979 94.5783972,222.562369 C95.4878049,222.98676 96.8216028,223.350523 96.8216028,223.774913 C96.8216028,224.199303 96.3365854,225.229965 95.3665505,225.229965 C94.3965157,225.229965 93.3658537,224.744948 92.3958188,224.744948 C91.3651568,224.744948 90.0313589,224.866202 89.0006969,224.987456 C87.9700348,225.108711 86.0299652,225.472474 86.0299652,224.078049 C86.0299652,222.744251 88.030662,222.865505 88.5763066,222.441115 C89.1219512,222.016725 89.3038328,220.379791 89.3038328,219.53101 L89.3038328,181.760279 C89.3038328,181.760279 89.5463415,180.911498 88.5763066,180.547735 C87.4850174,180.244599 86.9393728,180.729617 86.7574913,179.517073 L86.7574913,179.517073 L86.7574913,179.517073 Z M99.2466899,198.06899 C99.0041812,197.098955 99.6710801,197.038328 100.944251,196.068293 C102.217422,195.098258 103.066202,194.552613 103.672474,193.76446 C104.278746,192.976307 104.581882,192.127526 105.309408,192.24878 C106.036934,192.370035 106.097561,193.703833 106.097561,194.370732 L106.097561,221.04669 C106.097561,221.04669 106.097561,222.137979 107.006969,222.562369 C107.916376,222.98676 109.250174,223.350523 109.250174,223.774913 C109.250174,224.199303 108.765157,225.229965 107.795122,225.229965 C106.825087,225.229965 105.794425,224.744948 104.82439,224.744948 C103.854355,224.744948 102.45993,224.866202 101.429268,224.987456 C100.398606,225.108711 98.4585366,225.472474 98.4585366,224.078049 C98.4585366,222.744251 100.459233,222.865505 101.004878,222.441115 C101.550523,222.016725 101.732404,220.379791 101.732404,219.53101 L101.732404,200.130314 C101.732404,200.130314 101.974913,199.220906 101.004878,198.91777 C99.9135889,198.614634 99.5498258,198.978397 99.2466899,198.06899 L99.2466899,198.06899 L99.2466899,198.06899 Z M103.793728,177.334495 C105.188153,177.334495 106.279443,179.032056 106.279443,181.09338 C106.279443,183.154704 105.188153,184.852265 103.793728,184.852265 C102.399303,184.852265 101.308014,183.154704 101.308014,181.09338 C101.308014,179.032056 102.399303,177.334495 103.793728,177.334495 L103.793728,177.334495 L103.793728,177.334495 Z M163.026481,200.130314 C162.238328,200.130314 161.571429,198.735889 161.32892,197.341463 C161.086411,195.947038 159.631359,194.128223 157.691289,194.006969 C155.75122,193.946341 153.629268,195.098258 153.568641,198.311498 C153.508014,201.464111 153.447387,202.434146 158.96446,205.950523 C164.481533,209.466899 165.027178,213.468293 165.087805,215.287108 C165.148432,217.105923 164.724042,221.834843 161.450174,224.381185 C158.236934,226.866899 155.084321,226.745645 152.29547,225.654355 C149.50662,224.563066 149.08223,223.471777 149.08223,221.167944 C149.08223,218.864111 149.08223,217.045296 149.142857,216.31777 C149.203484,215.590244 149.567247,214.620209 150.173519,214.620209 C150.779791,214.620209 151.204181,215.590244 151.44669,217.105923 C151.689199,218.68223 152.356098,223.653659 154.417422,224.017422 C156.478746,224.381185 158.843206,224.25993 160.298258,222.198606 C161.75331,220.137282 161.632056,214.983972 159.934495,213.225784 C158.236934,211.467596 153.689895,209.466899 151.87108,207.102439 C150.112892,204.737979 149.688502,203.101045 149.809756,200.85784 C149.93101,198.554007 150.537282,195.462021 153.568641,193.461324 C156.6,191.460627 159.81324,191.763763 161.025784,192.309408 C162.1777,192.855052 163.814634,194.006969 163.754007,195.765157 C163.69338,197.462718 163.814634,200.130314 163.026481,200.130314 L163.026481,200.130314 L163.026481,200.130314 Z M127.802091,203.586063 C129.439024,204.49547 130.651568,202.191638 131.25784,200.797213 C131.864111,199.402787 132.591638,196.55331 133.319164,195.947038 C134.04669,195.340767 135.077352,193.946341 137.502439,194.249477 C139.927526,194.552613 139.2,198.06899 139.2,198.857143 L139.2,206.071777 C139.2,206.071777 134.713589,209.406272 133.319164,210.315679 C131.924739,211.285714 129.135889,213.832056 127.802091,216.499652 C126.468293,219.167247 126.165157,223.41115 128.529617,224.987456 C130.894077,226.503136 132.773519,226.806272 135.622997,224.866202 C138.411847,222.865505 138.957491,221.349826 139.806272,223.047387 C140.715679,224.744948 140.715679,226.139373 142.655749,226.078746 C144.656446,226.018118 145.687108,224.563066 146.111498,223.956794 C146.535889,223.350523 147.869686,221.531707 147.202787,220.864808 C146.535889,220.197909 145.929617,220.864808 145.565854,221.47108 C145.202091,222.077352 143.747038,222.441115 143.565157,220.501045 C143.262021,216.499652 143.686411,200.190941 143.262021,197.098955 C143.262021,197.098955 142.534495,192.430662 139.018118,192.066899 C135.501742,191.703136 132.591638,192.794425 130.409059,195.522648 C128.226481,198.250871 127.559582,199.402787 127.256446,200.251568 C126.95331,200.979094 126.165157,202.676655 127.802091,203.586063 L127.802091,203.586063 L127.802091,203.586063 Z M138.108711,209.285017 C136.896167,210.133798 135.622997,210.982578 133.925436,212.619512 C131.803484,214.680836 131.439721,215.772125 131.25784,218.015331 C131.136585,220.197909 131.803484,222.865505 134.592334,222.380488 C137.381185,221.834843 137.926829,220.561672 138.411847,219.167247 C138.896864,217.772822 139.139373,216.31777 139.139373,214.983972 L139.139373,209.830662 C139.2,209.22439 138.593728,209.042509 138.108711,209.285017 L138.108711,209.285017 L138.108711,209.285017 Z M64.3860627,203.586063 C66.0229965,204.49547 67.2355401,202.191638 67.8418118,200.797213 C68.4480836,199.402787 69.1756098,196.55331 69.9031359,195.947038 C70.630662,195.340767 71.661324,193.946341 74.0864111,194.249477 C76.5114983,194.552613 75.7839721,198.06899 75.7839721,198.857143 L75.7839721,206.071777 C75.7839721,206.071777 71.297561,209.406272 69.9031359,210.315679 C68.5087108,211.285714 65.7198606,213.832056 64.3860627,216.499652 C63.0522648,219.167247 62.7491289,223.41115 65.1135889,224.987456 C67.4780488,226.503136 69.3574913,226.806272 72.2069686,224.866202 C74.9958188,222.865505 75.5414634,221.349826 76.3902439,223.047387 C77.2996516,224.744948 77.2996516,226.139373 79.2397213,226.078746 C81.2404181,226.018118 82.2710801,224.563066 82.6954704,223.956794 C83.1198606,223.350523 84.4536585,221.531707 83.7867596,220.864808 C83.1198606,220.197909 82.5135889,220.864808 82.1498258,221.47108 C81.7860627,222.077352 80.3310105,222.441115 80.1491289,220.501045 C79.845993,216.499652 80.2703833,200.190941 79.845993,197.098955 C79.845993,197.098955 79.1184669,192.430662 75.6020906,192.066899 C72.0857143,191.703136 69.1756098,192.794425 66.9930314,195.522648 C64.810453,198.250871 64.143554,199.402787 63.8404181,200.251568 C63.5979094,200.979094 62.8097561,202.676655 64.3860627,203.586063 L64.3860627,203.586063 L64.3860627,203.586063 Z M75.7839721,208.557491 C74.2076655,209.709408 72.6919861,210.558188 70.5700348,212.619512 C68.4480836,214.680836 68.0843206,215.772125 67.902439,218.015331 C67.7811847,220.197909 68.3874564,222.865505 71.2369338,222.380488 C74.025784,221.834843 74.5714286,220.561672 75.056446,219.167247 C75.6020906,217.772822 75.7839721,216.31777 75.7839721,214.983972 L75.7839721,208.557491 L75.7839721,208.557491 L75.7839721,208.557491 Z M36.7400697,194.128223 C36.8006969,195.70453 37.4069686,195.219512 37.9526132,195.462021 C38.558885,195.70453 39.7714286,195.219512 39.7714286,197.341463 L39.7714286,215.287108 C39.7714286,215.287108 39.7108014,219.470383 41.4083624,222.441115 C43.1665505,225.411847 45.712892,226.321254 47.774216,226.321254 C49.8355401,226.321254 51.6543554,224.563066 52.0787456,224.017422 C52.5031359,223.41115 54.3825784,221.410453 54.5038328,223.350523 C54.6857143,225.35122 54.5038328,225.896864 55.5344948,226.2 C56.5045296,226.503136 56.2620209,225.593728 57.5351916,224.744948 C58.8083624,223.896167 59.4146341,223.41115 60.1421603,223.229268 C60.8696864,223.047387 61.5365854,221.410453 60.0815331,221.107317 C58.6264808,220.804181 58.6264808,220.379791 58.5658537,218.439721 C58.5052265,216.499652 58.5658537,194.855749 58.5658537,194.855749 C58.5658537,194.855749 58.3839721,193.279443 56.9289199,193.097561 C55.4738676,192.915679 53.7156794,193.097561 52.9881533,193.097561 C52.2606272,193.097561 51.533101,193.703833 51.6543554,194.310105 C51.8362369,194.977003 52.6243902,195.158885 53.4731707,195.70453 C54.3219512,196.310801 54.5644599,197.038328 54.5644599,198.190244 L54.5644599,214.741463 C54.5644599,214.741463 54.6250871,217.772822 53.3519164,219.773519 C52.0181185,221.774216 50.6236934,222.501742 48.6836237,222.501742 C46.6829268,222.501742 44.3184669,220.925436 44.2578397,216.560279 C44.1972125,212.195122 43.9547038,210.800697 43.9547038,210.800697 L43.9547038,194.916376 C43.9547038,194.916376 43.9547038,193.218815 42.4996516,193.158188 C41.4689895,193.097561 39.6501742,193.097561 38.195122,193.158188 C37.3463415,193.279443 36.7400697,193.582578 36.7400697,194.128223 L36.7400697,194.128223 L36.7400697,194.128223 Z M18.7337979,226.866899 C19.9463415,228.56446 22.1289199,232.262718 25.9484321,234.445296 C29.7679443,236.627875 32.8599303,238.204181 37.528223,237.658537 C42.1965157,237.112892 44.9247387,234.263415 46.3191638,232.565854 C47.7135889,230.868293 48.3804878,229.716376 47.3498258,228.685714 C46.3191638,227.655052 44.8641115,229.595122 43.0452962,230.747038 C41.2264808,231.898955 39.225784,232.747735 36.0125436,232.687108 C32.7993031,232.626481 29.0404181,231.535192 26.6759582,230.201394 C24.3721254,228.928223 22.4320557,227.594425 21.6439024,226.503136 C29.8285714,224.563066 35.1637631,214.135192 35.1637631,202.797909 C35.1637631,190.248084 28.7372822,178.789547 18.9156794,178.789547 C9.09407666,178.789547 2.42508711,191.581882 2.728223,202.858537 C2.97073171,214.074564 9.09407666,226.745645 18.7337979,226.866899 L18.7337979,226.866899 L18.7337979,226.866899 Z" id="Shape" fill="#0F828E"></path>
                <path d="M168.119164,222.562369 C171.089895,222.562369 173.454355,224.866202 173.454355,227.776307 C173.454355,230.686411 171.089895,233.050871 168.119164,233.050871 C165.148432,233.050871 162.723345,230.747038 162.723345,227.776307 C162.723345,224.866202 165.087805,222.562369 168.119164,222.562369 L168.119164,222.562369 L168.119164,222.562369 Z M168.058537,223.593031 C165.815331,223.593031 164.057143,225.472474 164.057143,227.776307 C164.057143,230.080139 165.815331,231.959582 168.119164,231.959582 C170.362369,232.020209 172.120557,230.080139 172.120557,227.836934 C172.120557,225.472474 170.362369,223.593031 168.058537,223.593031 L168.058537,223.593031 L168.058537,223.593031 Z M167.270383,230.50453 L166.05784,230.50453 L166.05784,225.290592 C166.542857,225.229965 167.209756,225.108711 168.058537,225.108711 C169.028571,225.108711 169.513589,225.290592 169.816725,225.533101 C170.119861,225.77561 170.362369,226.139373 170.362369,226.62439 C170.362369,227.291289 169.877352,227.655052 169.27108,227.897561 L169.27108,227.958188 C169.756098,228.14007 170.059233,228.503833 170.180488,229.231359 C170.362369,230.019512 170.483624,230.322648 170.544251,230.50453 L169.27108,230.50453 C169.089199,230.322648 169.028571,229.837631 168.84669,229.231359 C168.725436,228.685714 168.4223,228.443206 167.755401,228.443206 L167.209756,228.443206 L167.209756,230.50453 L167.270383,230.50453 Z M167.270383,227.594425 L167.816028,227.594425 C168.482927,227.594425 169.028571,227.351916 169.028571,226.806272 C169.028571,226.321254 168.664808,226.018118 167.937282,226.018118 C167.634146,226.018118 167.391638,226.078746 167.270383,226.078746 L167.270383,227.594425 L167.270383,227.594425 Z" id="Shape" fill="#0F828E"></path>
            </g>
        </g>
    </g>
</svg>